<svg version="1" xmlns="http://www.w3.org/2000/svg" width="800" height="800" viewBox="0 0 600.000000 600.000000"><path d="M167.2 36.6c-45 8-78 43.1-83.8 89.4-.8 6.6-.8 23.1.1 28 2.5 14.4 10 32.6 16.7 40.4 13.1 15.5 21.5 20.8 42.7 27 14.7 4.4 22.3 8.1 27.4 13.4 4 4.1 6.5 10.4 6.2 15.7-.1 1.6-.3 4.2-.3 5.6-.3 3.9-5.7 11.3-9.7 13.2-4.1 1.9-10.6 2.2-13.8.6-1.2-.6-5.9-4.9-10.4-9.5s-8.8-8.5-9.5-8.5c-9.6-.9-13.2-.2-18.7 3.9-4.9 3.6-6.5 8.3-5.6 16.2 1.2 11.4 1.2 11.6-2.5 13.5-3.2 1.7-4.9 5.8-3.1 7.9 1.4 1.6 6.7 1.9 10.3.5 4.1-1.7 4.8-8.2 2.2-21.6-.3-1.8-.3-4.4 0-5.8.9-3.6 3.4-2.8 12.6 3.8 4.3 3.1 9.1 6.2 10.7 6.8 1.5.6 7 1.1 12 1.1 11.6 0 18.4-2.8 25.5-10.3 6.6-7 9.1-14 9-25.1-.1-21.8-12.1-33.9-44.2-44.8-19.6-6.6-29.4-12.1-37-20.7-8.8-10-12.5-19-13.7-33.9-2-22.3 3.2-38.5 16.5-52 13.1-13.3 29.7-20.2 52.2-22 6-.5 8.9-.2 14.5 1.6 15.6 4.8 27.5 10.2 34.9 15.9 5.1 3.9 15.5 15.4 19.9 22 9.1 13.5 17.3 34 20.3 50.9 2.8 15.7 3.7 25.2 3.8 37.7 0 9.5-1.1 29.6-1.8 33-.3 1.1-.8 4.1-1.2 6.7-.5 3.6-1.1 4.8-2.4 4.8-1.4 0-1.7-.7-1.4-3.2 1.1-9.3 1-33.4-.2-42.8-.7-5.8-1.6-12.3-1.9-14.5-.2-2.2-.7-6.9-1.1-10.5-.4-5.1-1.6-8.6-5.6-16.5-11.4-22.5-20.4-35.9-32-47.2-10.9-10.9-17.2-14.7-20.3-12.5-1 .7-6 7.3-16.5 21.7-2.4 3.3-9.2 10.9-15.1 17-24.4 25.2-33.2 35-32.7 36.4.1.4 2.3.2 4.8-.5 3.2-.9 7.2-3.7 13.5-9.4 9.9-8.8 13.9-10.6 21.5-9.6 18.7 2.6 35.7 32.3 44.5 77.6 3.3 17 3.5 18.6 4 34 .3 12.5-.7 23.1-4 41-4 21.9-15.2 50.1-24.5 61.7-4.5 5.7-18 16.5-36 28.7-9.5 6.5-19.7 14.5-25.6 20.1-3.3 3.2-10.8 13.3-12.9 17.4-3.5 7-5.3 16.1-5 25.5.4 14 3.5 20.5 11.5 24.6 8.9 4.5 28.6 5.1 42 1.2 23.7-6.9 51.2-27.9 74.7-56.9 8.2-10.1 9.2-13.5 4.1-14.1-2.2-.3-3.8.9-9 6.5-32.4 34.8-42.8 43.9-61.3 53.1-14.6 7.3-33.1 9.1-44.3 4.2-7.3-3.1-9.4-6.5-10-15.5-1.5-23.2 18.2-46.5 48.3-57.2 12.5-4.5 18.7-5.6 33-5.9 17.1-.3 26.5 1.7 43 9.5 9.1 4.3 28.4 15.4 32 18.3 7.3 6.1 30.5 21.6 40 26.8 3.3 1.8 7.8 4.3 10 5.5 11.4 6.2 27.9 12.2 41.5 15.1 9.1 1.9 35.8 2.6 45.7 1.2 21.5-3.1 38.9-10 55.2-21.6 13.4-9.6 22.7-19.5 26-27.8 2-5.1 2.3-14 .5-15.5-2.2-1.8-4.3-.2-7.9 6.2-7.3 13-26 19.6-55 19.7-13.7 0-22.2-1.2-34.1-4.9-8.1-2.5-25.6-10.7-33.1-15.5-3.8-2.4-5.3-4-5.3-5.6 0-3.3 9.1-13.7 31.5-36.2 15.9-15.9 18.6-18.3 29.1-25.7 11.2-7.8 10.6-7.3 11-10.4l.2-2.7-6.1.8c-17.4 2-21.4.2-23.7-11.1-2-9.9-1.8-96.4.4-116 .3-2.8.8-8.8 1.1-13.5.3-4.6.7-9.6 1-11 .2-1.4.6-7 1-12.5.3-5.5.8-11.6 1-13.5.2-1.9.7-7.1 1-11.5 1.3-18.5 2.3-26.5 4.5-35 5.7-22.2 16.8-40.5 29.9-49.2 15.2-10.1 33.8-8.5 45.8 3.9 6.3 6.5 8.7 12.6 8.8 22.8.1 4.7-.2 9.8-.8 11.3-.5 1.6-3.6 5.5-6.8 8.8l-5.8 5.9H452.4l.1-7.9c.2-9.8-.6-11.8-5-13.7-10.2-4.2-20.2-.9-24.6 8.2-7.2 15-1.8 32.3 12 38.2 4.8 2 16.6 2.4 22.7.8 15.6-4.1 27.1-16.8 31.9-35.1 2-7.3 2.6-20.5 1.4-27-3-16-15.9-29.2-32.4-33-11.9-2.8-27.5-1.1-37.8 4.1-13.9 7-33 23.9-43.8 38.8-11.4 15.4-22 41-26.7 64.1-2.8 13.7-3.6 18.8-5.7 40-.5 4.9-1.3 32.9-2.1 74.5-.3 17.3-.7 34.4-.9 38-.2 3.6-.6 13-1 21-.3 8-.8 18.8-1.2 24-.3 5.2-.6 19.5-.7 31.7 0 12.2-.4 22.5-.8 22.9-.4.4-1.3.2-2-.4-1.9-1.5-13-7.6-23.2-12.7-17.9-9-34.8-14.5-52.3-17.1-2.6-.3-5.6-.8-6.7-1-3.2-.6-27.5-1.6-42.8-1.7-11.3-.2-14.8-.5-14.8-1.5 0-.7 4.9-6.3 11-12.5 21.7-22.2 38.9-46.3 52.8-74.2 17.1-34.5 27.3-69.4 30.8-106 1-9.8 1.1-38.8.2-47-5.1-48.6-36.6-83.5-82.8-92-6.9-1.3-33.4-1.2-40.8.1z"/><path d="M399.5 314.4c-4.4 1-5 1.4-5.3 3.8-.3 2.5 0 2.8 3 2.9 5.3.2 13 1.1 20.1 2.5 30.2 5.7 52.7 16.5 69.8 33.4 12.2 12 19.2 24.4 21.8 38 1 5.6.8 26-.3 31.5-8.7 42.2-45.3 77.1-93.6 89.5-4.7 1.2-9.4 2.3-10.5 2.5-1.1.2-3.8.7-6 1.1-5.6 1-32.1 1.2-37 .3-2.2-.4-6-1-8.5-1.4-2.5-.3-6.3-1.1-8.5-1.7-2.2-.5-5-1.2-6.3-1.4-4.3-.8-20.8-7.2-31.2-12.2-18.5-8.8-28-11.2-44.5-11.2-12.2 0-17.7 1.8-24.6 7.8-5.5 4.8-9.7 14.8-9.3 22.2 0 1.4.2 3.8.2 5.3.1 1.9 1.9 4.6 5.2 8.1 4.6 4.9 5.5 5.3 14 7.5 5 1.3 9.6 2.4 10.3 2.5 13.1 2.7 18.5 7.9 12.9 12.3-6.8 5.5-7.2 6.1-6.7 9.9.6 4.5 1.1 5.2 5.2 6l3.2.6-1-3.3c-1.7-5.6-1.6-6.3 2.3-8.4 4.3-2.3 5.8-5.6 5.1-11.1-1.1-9-6.4-11.8-27.2-14.9-7.7-1.1-14.5-4.2-16.4-7.4-2-3.4-2.2-11.5-.4-15.1 2.1-4.2 11.4-7.3 22.7-7.4 15.9-.2 18.5.4 56.5 13.2 13.2 4.4 25.4 8.4 27 8.7 13.9 2.9 18.2 3.3 32.5 3 59.4-1.1 108.4-28.4 130.8-73 7.5-15 10.1-27.8 10.5-51.7.2-12.5 0-15.3-2.1-22.3-1.3-4.4-2.7-8.9-3.1-10-.5-1.1-1.4-3.4-2-5-3-7.5-6.7-11.2-28.1-27.8-11.2-8.7-36.1-22.8-42.9-24.2-.9-.2-4.3-1.1-7.6-1.9-7.5-2.1-23.4-2.7-30-1.2zM327 331.3c-21.7 9-51.5 30-53.3 37.6-.5 2.2-.3 2.3 2.6 1.7 1.8-.3 4.6-1.6 6.2-2.8 11.6-8.6 23.1-15.6 42-25.8 9.6-5.1 12.3-7.4 12.1-10.3-.1-3-3-3.2-9.6-.4z"/></svg>